<?xml version="1.0" encoding="UTF-8" standalone="no" ?>
<!DOCTYPE svg PUBLIC "-//W3C//DTD SVG 1.1//EN" "http://www.w3.org/Graphics/SVG/1.1/DTD/svg11.dtd">
<svg xmlns="http://www.w3.org/2000/svg" xmlns:xlink="http://www.w3.org/1999/xlink" version="1.1" width="100" height="100" viewBox="345.8467672413792 67.21000000000001 100 100" xml:space="preserve">
<desc>Created with Fabric.js 4.6.0</desc>
<defs>
</defs>
<g transform="matrix(1.02 0 0 1.02 395.85 117.21)" id="IpPuJSg0X9dHsoXO79NkV"  >
<g style="" vector-effect="non-scaling-stroke"   >
		<g transform="matrix(1 0 0 1 0 0)" id="XBjPT64r6el-OBnTzOeB-"  >
<path style="stroke: rgb(171,174,219); stroke-width: 0; stroke-dasharray: none; stroke-linecap: butt; stroke-dashoffset: 0; stroke-linejoin: miter; stroke-miterlimit: 4; fill: rgb(0,0,0); fill-rule: nonzero; opacity: 1;" vector-effect="non-scaling-stroke"  transform=" translate(-49, -49)" d="M 0 0 L 98 0 L 98 98 L 0 98 z" stroke-linecap="round" />
</g>
		<g transform="matrix(0.66 0 0 1.42 -1.81 0)" id="vj8XBR_orSULgtKLRCXob"  >
<path style="stroke: rgb(226,228,190); stroke-width: 0; stroke-dasharray: none; stroke-linecap: butt; stroke-dashoffset: 0; stroke-linejoin: miter; stroke-miterlimit: 4; fill: rgb(255,255,255); fill-rule: nonzero; opacity: 1;" vector-effect="non-scaling-stroke"  transform=" translate(-39.84, -34.5)" d="M 59.75571 0 L 79.67433 34.5 L 59.75570999999999 69 L 19.918629999999993 69 L 0.000009999999992515995 34.5 L 19.918629999999993 0 z" stroke-linecap="round" />
</g>
		<g transform="matrix(0.59 0.59 -0.59 0.59 -1.81 0)" id="lFfYpMQPUi97IuNDfPBgc"  >
<path style="stroke: rgb(230,210,70); stroke-width: 0; stroke-dasharray: none; stroke-linecap: butt; stroke-dashoffset: 0; stroke-linejoin: miter; stroke-miterlimit: 4; fill: rgb(0,0,0); fill-rule: nonzero; opacity: 1;" vector-effect="non-scaling-stroke"  transform=" translate(0, 0)" d="M -21.5 -21.5 L 21.5 -21.5 L 21.5 21.5 L -21.5 21.5 z" stroke-linecap="round" />
</g>
</g>
</g>
</svg>