<?xml version="1.0" encoding="UTF-8" standalone="no" ?>
<!DOCTYPE svg PUBLIC "-//W3C//DTD SVG 1.1//EN" "http://www.w3.org/Graphics/SVG/1.1/DTD/svg11.dtd">
<svg xmlns="http://www.w3.org/2000/svg" xmlns:xlink="http://www.w3.org/1999/xlink" version="1.1" width="133.7742528735631" height="133.7742528735631" viewBox="334.71971264367824 183.11287356321844 133.7742528735631 133.7742528735631" xml:space="preserve">
<desc>Created with Fabric.js 4.6.0</desc>
<defs>
</defs>
<g transform="matrix(1.08 0 0 1.08 401.61 250)" id="yFR2uEneVO39csGdhwc7R"  >
<g style="" vector-effect="non-scaling-stroke"   >
		<g transform="matrix(0.54 0.54 -1.16 1.16 -0.35 0.35)" id="GZa-5lh5md8inD7DaC0RS"  >
<path style="stroke: rgb(226,228,190); stroke-width: 0; stroke-dasharray: none; stroke-linecap: butt; stroke-dashoffset: 0; stroke-linejoin: miter; stroke-miterlimit: 4; fill: rgb(0,0,0); fill-rule: nonzero; opacity: 1;" vector-effect="non-scaling-stroke"  transform=" translate(-39.84, -34.5)" d="M 59.75571 0 L 79.67433 34.5 L 59.75570999999999 69 L 19.918629999999993 69 L 0.000009999999992515995 34.5 L 19.918629999999993 0 z" stroke-linecap="round" />
</g>
		<g transform="matrix(-0.54 0.54 -1.16 -1.16 0.4 -0.4)" id="tGFXV9aAmnPTkgHEw5Ilb"  >
<path style="stroke: rgb(226,228,190); stroke-width: 0; stroke-dasharray: none; stroke-linecap: butt; stroke-dashoffset: 0; stroke-linejoin: miter; stroke-miterlimit: 4; fill: rgb(0,0,0); fill-rule: nonzero; opacity: 1;" vector-effect="non-scaling-stroke"  transform=" translate(-39.84, -34.5)" d="M 59.75571 0 L 79.67433 34.5 L 59.75570999999999 69 L 19.918629999999993 69 L 0.000009999999992515995 34.5 L 19.918629999999993 0 z" stroke-linecap="round" />
</g>
		<g transform="matrix(1 0 0 1 0.4 -0.4)" id="A_Rcgir_8ekeR6TlX8p1H"  >
<g style="" vector-effect="non-scaling-stroke"   >
		<g transform="matrix(0.43 0 0 0.43 0 0)" id="G0ofee3WrPXfPyMU77j1-"  >
<path style="stroke: rgb(215,31,81); stroke-width: 0; stroke-dasharray: none; stroke-linecap: butt; stroke-dashoffset: 0; stroke-linejoin: miter; stroke-miterlimit: 4; fill: rgb(255,255,255); fill-rule: nonzero; opacity: 1;" vector-effect="non-scaling-stroke"  transform=" translate(0, 0)" d="M 0 -50 C 27.6 -50 50 -27.6 50 0 C 50 27.6 27.6 50 0 50 C -27.6 50 -50 27.6 -50 0 C -50 -27.6 -27.6 -50 0 -50 z" stroke-linecap="round" />
</g>
		<g transform="matrix(0.95 0 0 0.95 0 0)" id="ID1DNqzAG57yGlxpVCDoB"  >
<path style="stroke: rgb(231,66,141); stroke-width: 0; stroke-dasharray: none; stroke-linecap: butt; stroke-dashoffset: 0; stroke-linejoin: miter; stroke-miterlimit: 4; fill: rgb(0,0,0); fill-rule: nonzero; opacity: 1;" vector-effect="non-scaling-stroke"  transform=" translate(0, 0)" d="M 0 -16.5 C 9.108 -16.5 16.5 -9.108 16.5 0 C 16.5 9.108 9.108 16.5 0 16.5 C -9.108 16.5 -16.5 9.108 -16.5 0 C -16.5 -9.108 -9.108 -16.5 0 -16.5 z" stroke-linecap="round" />
</g>
</g>
</g>
</g>
</g>
</svg>