<svg xmlns="http://www.w3.org/2000/svg" viewBox="0 0 290.79 207.58"><defs><style>.cls-1{fill:#1d1d1b;}</style></defs><g id="Capa_2" data-name="Capa 2"><g id="Capa_1-2" data-name="Capa 1"><path class="cls-1" d="M33.51,80.88c5.06,21-7.59,42.67,11.8,61.6,7.36,7.2,3.74,19.23-5.27,26-8.07,6-17.6,5.94-25.35-.7-8.36-7.16-11.78-18-4.09-26.18,18.88-20.17,6.68-44,9.73-65.85,1.24-8.92-9-9.37-14.29-13.27-8.13-6-8.38-11.59,1.27-15C51.63,31.65,96.12,16.38,140.52.88c5.83-2,11.27-.13,16.46,1.67q60.68,21,121.18,42.56c5,1.8,12.26,2.34,12.61,9.37.34,6.81-6.08,9.21-11.34,10.79C240.36,77,231.74,103.86,235,142.06c3.55,41.76-5,50.24-46.57,59.88-37.76,8.75-75.31,8.53-111.15-9.32-15-7.46-24.37-17.17-22.27-36.08,1.84-16.68-.4-33.78.69-50.6C56.62,91.38,51.36,83.34,33.51,80.88ZM267.09,56.11c-40.68-14.08-77-26.54-113.23-39.33-4.83-1.71-9.11-3-14.15-1.16C102.41,28.9,65.07,42,24.48,56.38c39.84,21.9,76.52,41.88,113,62.27,6.45,3.61,11.4,2.83,17.45-.55C190.88,98,227.05,78.18,267.09,56.11ZM221.92,97c-22.62,12.57-42.86,23.38-62.64,35-9.48,5.56-17.38,5.81-27.14-.06C112.5,120.13,92,109.69,71.5,98.46c-5.32,49.13-6.75,48.17,31.91,61.81,20.45,7.21,42.52,7.45,64.55,3.88C219.86,155.73,223.69,151.71,221.92,97ZM69,164.72c23.69,27.6,55.79,30.11,88.92,28,38.37-2.44,56-10.84,64.77-31C171,185.14,120.48,186.22,69,164.72Z"/></g></g></svg>