<svg xmlns="http://www.w3.org/2000/svg" viewBox="0 0 217.92 207.79"><defs><style>.cls-1{fill:#1d1d1b;}</style></defs><g id="Capa_2" data-name="Capa 2"><g id="Capa_1-2" data-name="Capa 1"><path class="cls-1" d="M202.61,0c12,3.66,15.46,12,15.3,24-.5,38.68,0,77.36-.16,116-.06,20-4.44,24.13-24.57,24.21-17.67.06-35.35-.12-53,0-4.09,0-9.73-1.33-9.82,5.46-.1,7,5.92,6.17,9.63,5.3,17.92-4.18,20.38,10.14,26.25,20.84,4.13,7.51,2.39,11.75-6.12,11.8q-51.39.26-102.78-.08c-7.57,0-9.68-3.75-6.2-10.81,5.72-11.6,9-25.75,27.32-21.75,3.45.75,8.15.94,8.4-4.94.32-7.25-5.23-5.75-9.23-5.79-18.19-.14-36.38.07-54.57-.07C5.06,164.12.17,159.47.1,141.91Q-.13,83.05.1,24.21C.16,5.5,4.9.79,23.59.7Q108.12.27,192.65,0Zm-94.83,11.2v-.09c-28.15,0-56.31.42-84.45-.23-9.75-.22-13.19,2.06-13,12.41.63,39.18.75,78.38.16,117.56-.17,11.39,5.29,12.51,14.16,12.48,56.3-.19,112.6-.38,168.89.06,11.29.09,13.82-4,13.66-14.58q-.88-56.28.06-112.57c.2-11.54-3.28-15.55-15-15.26C164.1,11.68,135.94,11.21,107.78,11.21ZM64.91,196.8c26.44,0,52.75.1,79.06-.13,3,0,8.83,2.68,8.14-4.14-.39-3.82-2.9-7.05-7.78-6.87-3.84.13-7.72-.33-11.53,0-8.44.71-14.45-1-12.85-11.39,1.23-8-2.06-10.73-10-10.3-7,.39-13.82-.05-12.4,10.1,1.65,11.84-5.8,11.82-14.26,11.65C75.72,185.57,66,182.67,64.91,196.8Z"/><path class="cls-1" d="M109.74,17.29c25.4,0,50.82.42,76.21-.19,11.69-.28,15.61,4.31,15.42,15.59-.46,27.6-.39,55.22-.08,82.82.13,11.07-4,16-15.55,15.94q-77-.48-154.08,0C19.85,131.46,16.59,126,16.78,115c.47-28.16.58-56.33-.06-84.48-.23-10.47,3.86-13.47,13.5-13.35C56.72,17.51,83.23,17.3,109.74,17.29Zm.15,103.17v.1c23.15,0,46.31-.07,69.46,0,6.44,0,11.57.42,11.34-9.08-.61-24.79-.32-49.61-.05-74.41.07-6.95-2.12-9.47-9.46-9.42q-71.94.48-143.88.1c-7.26,0-10.71,1.29-10.48,9.89.65,24.23.57,48.51,0,72.75-.19,8.21,2.49,10.31,10.3,10.17C61.38,120.19,85.64,120.46,109.89,120.46Z"/></g></g></svg>