<svg xmlns="http://www.w3.org/2000/svg" viewBox="0 0 135.08 207.79"><defs><style>.cls-1{fill:#1d1d1b;}</style></defs><g id="Capa_2" data-name="Capa 2"><g id="Capa_1-2" data-name="Capa 1"><path class="cls-1" d="M28.74,160.17c2.54-8.92-3.57-18.88,3.11-28,5.12-7-3.61-7.91-6.76-10.6C-13.11,89-6.68,29,37.54,7a67.43,67.43,0,0,1,86,23.05C143,59.5,137.48,98.64,110.11,120.93c-6.36,5.18-6.7,7.9-5.32,16.8,3.35,21.71,7.59,45.34-13.28,63.16-12.21,10.43-38.62,8.69-50-2.89C30.77,187.12,25.59,175.42,28.74,160.17Zm32-72.48c-8.15,5.76-10.87-2.56-15.16-6.13-2.89-2.41-7.21-5.07-5.78-9.63,1.75-5.6,7.12-4.57,11.6-4.57q17.13,0,34.25.09c3.45,0,7.34-.11,8.86,3.65C96,74.67,93.76,77.45,91.1,80Q84.29,86.45,77.94,93.4c-5.26,5.79-7.86,32.4-3,35.09,11.62,6.46,14.52-4.41,19.81-10.7,1.75-2.08,4.81-3,7.06-4.73C128,92.8,131.3,53.92,108.94,29.72S49.71,5,26.66,28.87C3.93,52.4,6.55,91.76,32.2,112.5c5.11,4.13,12.1,6,13.74,14.18,1,5.09,6.68,2.77,10.36,2.71,5.4-.08,6-4,6-8.37.12-10.23-1.53-20.54,1.23-30.66,3.63-2.88,8.23-4.94,9.06-10.31C64.75,76.93,60.6,79.07,60.75,87.69ZM94.22,158.9H40A95,95,0,0,0,94.22,158.9Zm.28-13.68c.06-.94.12-1.89.19-2.83H40c0,.94.11,1.89.16,2.83Zm.6,30.86H39.91A107.45,107.45,0,0,0,95.1,176.08Z"/></g></g></svg>