<?xml version="1.0" encoding="UTF-8" standalone="no" ?>
<!DOCTYPE svg PUBLIC "-//W3C//DTD SVG 1.1//EN" "http://www.w3.org/Graphics/SVG/1.1/DTD/svg11.dtd">
<svg xmlns="http://www.w3.org/2000/svg" xmlns:xlink="http://www.w3.org/1999/xlink" version="1.1" width="99.64" height="99.64" viewBox="115.22 67.38999999999999 99.64 99.64" xml:space="preserve">
<desc>Created with Fabric.js 4.6.0</desc>
<defs>
</defs>
<g transform="matrix(1 0 0 1 165.04 117.21)" id="q2QpMBu84VOnNXBE2STMz"  >
<g style="" vector-effect="non-scaling-stroke"   >
		<g transform="matrix(1.06 0 0 1.06 0 0)" id="INvd2Cvtm60DIT-7Tvp9D"  >
<path style="stroke: rgb(127,1,87); stroke-width: 0; stroke-dasharray: none; stroke-linecap: butt; stroke-dashoffset: 0; stroke-linejoin: miter; stroke-miterlimit: 4; fill: rgb(255,255,255); fill-rule: nonzero; opacity: 1;" vector-effect="non-scaling-stroke"  transform=" translate(-47, -47)" d="M 47 0 C 72.944 0 94 21.056 94 47 C 94 72.944 72.944 94 47 94 C 21.056 94 0 72.944 0 47 C 0 21.056 21.056 0 47 0 z" stroke-linecap="round" />
</g>
		<g transform="matrix(1.06 0 0 1.06 0 10.07)" id="A3pz8tkP48ykg3R95kBOj"  >
<path style="stroke: rgb(67,177,74); stroke-width: 0; stroke-dasharray: none; stroke-linecap: butt; stroke-dashoffset: 0; stroke-linejoin: miter; stroke-miterlimit: 4; fill: rgb(0,0,0); fill-rule: nonzero; opacity: 1;" vector-effect="non-scaling-stroke"  transform=" translate(-37.5, -37.5)" d="M 37.5 0 C 58.2 0 75 16.8 75 37.5 C 75 58.2 58.2 75 37.5 75 C 16.8 75 0 58.2 0 37.5 C 0 16.8 16.8 0 37.5 0 z" stroke-linecap="round" />
</g>
		<g transform="matrix(1.06 0 0 1.06 0 20.67)" id="6rY-3HFRd8EmjsS7lCdEa"  >
<path style="stroke: rgb(226,46,139); stroke-width: 0; stroke-dasharray: none; stroke-linecap: butt; stroke-dashoffset: 0; stroke-linejoin: miter; stroke-miterlimit: 4; fill: rgb(255,255,255); fill-rule: nonzero; opacity: 1;" vector-effect="non-scaling-stroke"  transform=" translate(-27.5, -27.5)" d="M 27.5 0 C 42.68 0 55 12.32 55 27.5 C 55 42.68 42.68 55 27.5 55 C 12.32 55 0 42.68 0 27.5 C 0 12.32 12.32 0 27.5 0 z" stroke-linecap="round" />
</g>
</g>
</g>
</svg>