<svg xmlns="http://www.w3.org/2000/svg" viewBox="0 0 344.31 146.6"><defs><style>.cls-1{fill:#1d1d1b;}</style></defs><g id="Capa_2" data-name="Capa 2"><g id="Capa_1-2" data-name="Capa 1"><path class="cls-1" d="M234.17,20.21c-17.37,17.37-33.08,33.25-49,48.89-3.13,3.07-3.6,4.61,0,7.76,14.4,12.5,28.51,25.35,42.65,38.16,1.86,1.68,3.66,2.7,6.25,2.5,22.77-1.75,45.16-5.19,65.12-17.25C310,93.75,319.52,85.93,323,72.81c2.65-10.06-1-18.52-6.57-26.21-10.92-15-26.71-23.13-43.43-29.87C260,11.49,246.56,8,231.44,5.18c4.75-1.73,8.23-.76,11.67-.14,3.67.66,7.33,1.39,11,2.23,24,5.6,47.25,13.23,67.32,28.22,9.37,7,17.46,15.36,21,26.75,5.11,16.42-.35,30.45-11.68,42.5-16.14,17.15-37.08,25.89-59,32.39-18.68,5.53-37.93,8.08-57.36,9.45-3.51.25-5.08-2-7.08-3.84Q181.14,118.9,155.13,95c-.81-.75-1.66-1.46-3.5-3.06,0,10.73-.28,20.27.11,29.79.2,4.8-1.44,5.94-5.94,5.74a213.42,213.42,0,0,0-23.32,0c-5.89.38-8-.86-7.85-7.45.46-28.5.08-57,.31-85.51,0-4.72-.72-6.55-6-6.21-21.67,1.41-42.76,5-62,15.71C34.63,50.88,24.14,59.57,21.08,74.6,18.86,85.54,23,94.43,29.59,102.38c14,17,33.47,25.15,53.58,32,5.72,1.94,11.78,2.85,17.57,4.6,1.92.58,4.66.3,6.12,3.87-24.47-4.55-47.63-10.46-69-22-10.41-5.64-20.11-12.23-27.58-21.57C-3.54,82-3.43,62.33,10.68,45.33c14.66-17.64,34.56-27,55.76-33.78A247.74,247.74,0,0,1,146.77,0c4.12.07,5,1.32,4.94,5.17-.19,16.87-.08,33.74-.08,52,11.83-11.55,22.79-22.05,33.49-32.81a13.22,13.22,0,0,1,10.56-4.3C207.83,20.4,220,20.21,234.17,20.21Z"/></g></g></svg>