<svg xmlns="http://www.w3.org/2000/svg" viewBox="0 0 507.99 82.75"><defs><style>.cls-1{fill:#1d1d1b;}</style></defs><g id="Capa_2" data-name="Capa 2"><g id="Capa_1-2" data-name="Capa 1"><path class="cls-1" d="M39.56,33q0,7.13,0,14.27a1.2,1.2,0,0,0-1.33,1.29l-19.75.07-.65,1.07c.6,10.5.39,21,.11,31.5-1,0-2,0-2.15,1.36H5.57C4.3,79.88,1.93,81.75.15,81.19.1,73.64,0,66.09,0,58.53Q0,29.78.14,1L.83.26Q20.54-.2,40.24.26L41,1a137.6,137.6,0,0,1,0,15.6c-.09.05-.27.1-.27.15a2.39,2.39,0,0,0,.1.52c-4.75,1-9.55.2-14.33.44a34.89,34.89,0,0,1-5.41,0c-2.35-.26-3.22.52-3,2.94.34,3.68-.38,7.41.36,11.09.52,1.75,2,1.17,3.12,1.18C27.58,33,33.57,33,39.56,33Z"/><path class="cls-1" d="M39.56,33c-6,0-12,0-18,0-1.13,0-2.6.57-3.12-1.18l1.42.09c6.51,1,13.07.2,19.6.44Z"/><path class="cls-1" d="M39.49,32.28c-6.53-.24-13.09.59-19.6-.44l18.61-.16C39,31.67,39.39,31.71,39.49,32.28Z"/><path class="cls-1" d="M.15,81.19c1.78.56,4.15-1.31,5.42,1.32l-4.32.14C.18,82.69-.11,82.15.15,81.19Z"/><path class="cls-1" d="M15.78,82.51c.11-1.4,1.17-1.32,2.15-1.36C18.45,83.56,16.75,82.46,15.78,82.51Z"/><path class="cls-1" d="M38.22,48.51a1.2,1.2,0,0,1,1.33-1.29C39.92,48.49,39.37,48.81,38.22,48.51Z"/><path class="cls-1" d="M.83.26.14,1C.05.47.19.14.83.26Z"/><path class="cls-1" d="M40.84,17.3a2.39,2.39,0,0,1-.1-.52c0-.05.18-.1.27-.15Z"/><path class="cls-1" d="M17.82,49.65l.65-1.07Z"/><path class="cls-1" d="M41,1,40.24.26C40.87.14,41.12.4,41,1Z"/><path class="cls-1" d="M377.62,41.44c0-12.79.06-25.58-.05-38.37,0-2.25.34-3.19,2.88-3.06,4.29.24,8.61.16,12.91,0,1.85,0,2.5.36,2.5,2.38q-.11,38.87,0,77.75c0,2.2-.68,2.63-2.68,2.56-4.3-.14-8.62-.2-12.91,0-2.44.13-2.71-.88-2.7-2.93C377.66,67,377.62,54.23,377.62,41.44Z"/><path class="cls-1" d="M504.6,2.37c-5,10.49-10,21-15.06,31.43a4.94,4.94,0,0,0-.18,4.68c5.93,13.8,11.73,27.65,17.56,41.48.34.81.65,1.64,1.07,2.72-6.5,0-12.71-.09-18.92,0-1.92,0-2.2-1.16-2.66-2.41l-9.6-26.19c-2.17,3.63-4.18,6.61-4,10.77.28,5.63,0,11.3-.11,16.95l-.76.68c-4.75,0-9.51,0-14.25.21-2.46.13-2.93-.69-2.92-3,.1-18.9.05-37.79.07-56.68,0-7.35.09-14.7.13-22l.66-.74A147.54,147.54,0,0,1,472,.25l.79.78v29.7l.63.19L485.12,3.68l.41-.71.18-.63.46-.85a.33.33,0,0,1,.16-.49l.58-.66h0l.93-.06a132.39,132.39,0,0,1,16.06,0C503.93,1.05,503.8,1.86,504.6,2.37Z"/><path class="cls-1" d="M504.6,2.37c-.8-.51-.67-1.32-.68-2.09.6-.24,1.47-.45,1.6.23S504.94,1.75,504.6,2.37Z"/><path class="cls-1" d="M455.66.27,455,1C454.92.5,455,.16,455.66.27Z"/><path class="cls-1" d="M486.91.34l-.58.66C486.3.58,486.43.3,486.91.34Z"/><path class="cls-1" d="M472.74,1,472,.25C472.59.13,472.85.4,472.74,1Z"/><path class="cls-1" d="M487.86.27l-.93.06C487.21-.06,487.53,0,487.86.27Z"/><path class="cls-1" d="M472,82.53l.76-.68C472.86,82.5,472.5,82.61,472,82.53Z"/><path class="cls-1" d="M485.53,3l-.41.71Z"/><path class="cls-1" d="M486.17,1.49l-.46.85Z"/><path class="cls-1" d="M84.65,82.68c2.76-13.78,5.42-27.17,8.12-40.57,2.64-13.15,5.36-26.29,8-39.45.36-1.84.87-2.7,3-2.64,6.11.15,12.22.11,18.33,0,1.69,0,2.28.49,2.63,2.18q7.92,39,16,78c.39,1.89.14,2.59-2,2.52-4.87-.14-9.74-.16-14.6,0-2,.07-2.53-.73-2.69-2.44-.3-3-.81-6.05-1-9.09-.17-2.15-.8-3.24-3.26-3a30,30,0,0,1-7.46,0c-3.63-.53-4.74,1.08-4.74,4.36a32.77,32.77,0,0,1-.57,4.7c-.75,5.41-.76,5.41-6.08,5.41ZM113,18.14l-.46.16c-1.38,9.61-2.78,19.22-4.14,28.83-.7,4.86-.67,4.86,4.31,4.86s5.06,0,4.37-5.07C115.72,37.32,114.32,27.73,113,18.14Z"/><path class="cls-1" d="M274.81.26c10.19,0,20.38-.3,30.56,0,7.61.25,13.09,5.23,15,12.58a36.59,36.59,0,0,1,.16,17.8c-1.31,5.43-4.19,9.44-10.91,11,10.65,2.18,11,10,11.38,17.59.24,4.75,0,9.51.1,14.26,0,2.61.24,5.23,2.11,7.33,1.53,1.73.24,1.77-1.05,1.78-5.21,0-10.42-.07-15.63,0-1.75,0-2.36-.68-2.67-2.26a68.78,68.78,0,0,1-1.08-12.15c-.06-4.07.13-8.16-.2-12.21-.43-5.49-3.9-7.73-9.22-6.49-1.82.42-1.14,1.73-1.14,2.69-.06,8.72,0,17.43,0,26.15,0,1.12-.13,2.24-.21,3.36l-.8.72h-15c-.08-1.35-1-1.34-2-1.33-.06-8.45-.16-16.91-.15-25.37,0-18.27.09-36.54.14-54.81Zm28.47,24.6c0-.45,0-.91,0-1.36-.44-6-3.41-8.45-9.36-8-1.33.1-1.79.48-1.78,1.77,0,5.31.06,10.62,0,15.93,0,1.6.71,1.75,2.05,1.81C300.4,35.25,303.38,32,303.28,24.86Z"/><path class="cls-1" d="M274.15,81.19c1,0,1.93,0,2,1.33C275.15,82.59,273.74,83.28,274.15,81.19Z"/><path class="cls-1" d="M291.13,82.53l.8-.72C292.2,82.66,291.72,82.65,291.13,82.53Z"/><path class="cls-1" d="M274.81.26l-.67.75C274.05.48,274.2.16,274.81.26Z"/><path class="cls-1" d="M180.89,81.86c-.06-1.8-.18-3.6-.18-5.39q0-35.86,0-71.74c0-1.23.12-2.46.18-3.7l.79-.78c9.62,0,19.24-.29,28.85,0C218.71.46,224,5,226.17,12.84a29,29,0,0,1-.45,17.05,13.91,13.91,0,0,1-9.17,9.36c9,2.27,11.57,8.87,12.45,16.49a31.25,31.25,0,0,1-2,15.33c-2.82,7.07-8.17,11.18-15.77,11.43-9.84.31-19.69,0-29.54,0Zm29.37-25.74c0,.37,0-.2,0-.76-.41-6-3.39-8.6-9.41-8.28-1.35.08-2.06.27-2,1.86.08,5.52,0,11,0,16.57,0,.65,0,1.26.81,1.61,3.29,1.37,8.25-.68,9.7-4.11A15.31,15.31,0,0,0,210.26,56.12Zm-9-23.7c1.94-.14,3.41.16,4.74-.81,2.62-1.9,3.78-7.06,2.43-11.27-1.26-3.92-2.92-4.88-7.39-4.86-1.92,0-2.25.74-2.22,2.4.09,3.84.14,7.69,0,11.52C198.7,31.66,199.16,33,201.24,32.42Z"/><path class="cls-1" d="M181.68.25l-.79.78C180.78.4,181,.13,181.68.25Z"/><path class="cls-1" d="M180.89,81.86l.77.67C181.13,82.61,180.79,82.49,180.89,81.86Z"/></g></g></svg>