<svg xmlns="http://www.w3.org/2000/svg" viewBox="0 0 507.99 122.25"><defs><style>.cls-1{fill:#1d1d1b;}</style></defs><g id="Capa_2" data-name="Capa 2"><g id="Capa_1-2" data-name="Capa 1"><path class="cls-1" d="M102,122.23H71.17c-.2-.83-1.06-1.07-1.51-1.7a67.46,67.46,0,0,1-4-7c-2.8-5.08-5.55-10.19-8.31-15.29-4-7.35-8-14.72-12-22.06-2.53-4.62-4.89-9.34-7.65-13.84-.15-.25-.2-.62-.63-.62A2,2,0,0,0,37,63q0,12.81,0,25.64c0,.21,0,.42,0,.63-.07.89.34,1.29,1.23,1.31s1.67.16,2.52.21c1.59.09,1.74.24,1.74,1.8v29.65q-20.8,0-41.59,0c-.73,0-.87-.14-.87-.86Q0,106.2,0,91c1.08-.12,2.16-.31,3.24-.35,1.67-.06,1.63-.16,1.63-1.94V33.34c0-.32,0-.64,0-1,0-.61-.27-.88-.88-.93-1.33-.11-2.65-.27-4-.41Q0,15.9,0,.76C0,.13.13,0,.76,0Q18.34,0,35.91,0c1.87,1.37,2.9,3.35,4,5.34,2.68,5,5.42,10,8.15,15,3.88,7.09,7.75,14.19,11.67,21.25,3.19,5.75,6.23,11.58,9.57,17.24.18.3.3.69.85.82V33.34c0-.25,0-.5,0-.74.07-.8-.28-1.14-1.1-1.16a27,27,0,0,1-2.83-.24c-1.54-.19-1.55-.21-1.55-1.75V0h42.85V22.38c0,2.5,0,5,0,7.49,0,.76-.2,1.17-1,1.22-1.23.07-2.45.27-3.67.37-.58.05-.86.22-.85.9q.06,10.76,0,21.52Q102,88,102,122.23Z"/><path class="cls-1" d="M279.77,0h42.64V29.66c0,1.28-.17,1.47-1.41,1.58-1.05.08-2.1.21-3.15.21s-1.21.38-1.14,1.22c0,.28,0,.56,0,.84v88.72h-30.4a30.92,30.92,0,0,1-2.39-3c-2.76-5.18-5.57-10.33-8.37-15.49L261.66,78c-2.49-4.6-5-9.22-7.47-13.81a8.64,8.64,0,0,0-1.56-2.44,1.57,1.57,0,0,0-.09.29q0,13.66,0,27.32a1,1,0,0,0,1,1.1c.94.08,1.89.18,2.83.19,1.2,0,1.49.57,1.48,1.71,0,10,0,19.9,0,29.85H215V98c0-1.94,0-3.87,0-5.81,0-.76.21-1.18,1.06-1.2a17.83,17.83,0,0,0,2.3-.28c2.15-.33,2.15-.34,2.15-2.49V33.54c0-.36,0-.71,0-1.06,0-.71-.3-1-1-1-1,0-2-.14-2.94-.26C215,31,215,31,215,29.45V0h35.89c.1.14.17.34.31.4a6.64,6.64,0,0,1,3,3.16c2.43,4.52,4.84,9.05,7.29,13.56q6.19,11.38,12.43,22.77c3,5.58,6.07,11.18,9.15,16.75a13.94,13.94,0,0,0,1.84,3,1.75,1.75,0,0,0,.19-1.18V45c0-4.11,0-8.23,0-12.34,0-.83-.25-1.23-1.14-1.22a23.78,23.78,0,0,1-2.52-.21c-1.66-.15-1.82-.32-1.82-2q0-13.71,0-27.43A6.6,6.6,0,0,1,279.77,0Z"/><path class="cls-1" d="M184.55,122.23h-9.93a.82.82,0,0,0-.8-.41c-1.61-.07-3.22-.21-4.84-.21H118.74c-1.51,0-1.53,0-1.54-1.54V108.14c0-5.42,0-10.84,0-16.25,0-1.06.43-1.46,1.4-1.52.77-.05,1.54-.17,2.31-.21,1.79-.09,1.8-.08,1.8-1.87V33.1c0-.28,0-.56,0-.84,0-.65-.3-1-1-1-.91-.05-1.82-.15-2.73-.22-1.6-.11-1.78-.29-1.78-1.91q0-13.24,0-26.49A12.76,12.76,0,0,1,117.41,0h70.3a.84.84,0,0,0,.53.48,8.38,8.38,0,0,1,3.15,2.24c1.57,1.66,3.14,3.32,4.74,4.94,2.25,2.28,4.56,4.5,6.67,6.9a8,8,0,0,1,2.2,5c.11,3,.07,6,.2,9,.24,5.44-.24,10.89-.16,16.34a8.49,8.49,0,0,1-2.65,6.41c-2.83,2.84-5.68,5.66-8.63,8.38-.65.6-.61,1,0,1.6,2.88,2.84,5.76,5.67,8.49,8.66A9.07,9.07,0,0,1,205,75.74c.12,3,.07,6,.2,9.06.24,5.73-.22,11.46-.19,17.19a6.55,6.55,0,0,1-1.74,4.53c-2.88,3.14-5.42,6.56-8.41,9.59-2.73,2.75-5.7,5-9.63,5.7A.79.79,0,0,0,184.55,122.23ZM164,44.77c2.92,0,5.84,0,8.76,0,1,0,1.3-.32,1.29-1.29,0-3.65,0-7.31,0-11,0-1-.35-1.29-1.3-1.28q-8.76,0-17.51,0c-1,0-1.3.32-1.29,1.29,0,3.65,0,7.31,0,11,0,1,.34,1.29,1.29,1.28C158.13,44.74,161.05,44.77,164,44.77Zm0,45.16c2.92,0,5.84,0,8.76,0,.94,0,1.31-.31,1.3-1.28q-.06-5.28,0-10.55c0-1-.33-1.3-1.29-1.3q-8.76,0-17.52,0c-1,0-1.3.32-1.29,1.29q.06,5.27,0,10.55c0,1,.31,1.3,1.28,1.29C158.12,89.9,161,89.93,164,89.93Z"/><path class="cls-1" d="M350.49,0H396.1c0,.18.17.19.31.18s.18-.06.11-.18h.42a.78.78,0,0,0-.1.15s0,.06.06.07a9.86,9.86,0,0,1,3.64,2c4.28,4.12,8.52,8.3,12.5,12.71a7,7,0,0,1,1.86,4.7c0,2.14.07,4.29.1,6.43.13,10.17.05,20.33-.08,30.49A7.9,7.9,0,0,1,412.76,62c-3.93,4.28-7.95,8.46-12.25,12.37a7.93,7.93,0,0,1-5.22,2.22q-6.27.16-12.55.19-9.28,0-18.58,0c-.76,0-1,.16-1,1,.05,4,0,8,0,12,0,.75.22.95,1,.95q9.45,0,18.9,0c.77,0,.93-.29.92-1,0-1.9,0-3.8,0-5.7,0-.89.25-1.1,1.12-1.1q14.29,0,28.6,0c1,0,1.13.33,1.12,1.19,0,6.62,0,13.23,0,19.85l0,18.25H332.12c-.06-1-.18-2.1-.18-3.16,0-17.65-.13-35.31.13-53a7.56,7.56,0,0,1,2.43-5.64c4.8-4.55,9.83-8.84,15-13a8.31,8.31,0,0,1,5.16-1.87q7.91-.09,15.83-.12c4.11,0,8.23.13,12.34-.09.82,0,1.06-.27,1.05-1.09q-.06-5.91,0-11.82c0-.69-.13-1-.91-1q-9.56,0-19.11,0c-.67,0-.91.17-.9.89.05,2,0,4.08,0,6.12,0,.75-.24.93-1,.93q-14.5,0-29,0c-.76,0-1-.17-1-1q.1-10.08.1-20.15a4,4,0,0,1,1.26-3C337.7,10.91,342,6.4,346.55,2.16A7.19,7.19,0,0,1,349.41.43c.19,0,.61.06.45-.41h.42c0,.1,0,.18.09.17S350.45.08,350.49,0Z"/><path class="cls-1" d="M443.39,0h45.39c.14.26.28.34.42,0h.43s-.12.1-.11.13a.26.26,0,0,0,.14.15,10.65,10.65,0,0,1,4.2,2.49c4.34,4,8.55,8.12,12.79,12.23.4.39.69,1,1.34,1V49.41c-.26-.31-.41,0-.53.14q-5.38,5.18-10.76,10.38c-.29.28-.4.49-.06.86,3.63,3.95,7.23,7.93,10.85,11.89.12.13.23.47.5.16v32.72c-.48-.2-.6.27-.81.49q-6.21,6.17-12.4,12.35c-1.47,1.45-2.9,3-5,3.5-.11,0-.39.11-.12.33H489c.05-.09,0-.17-.08-.16s-.09.11-.13.16H444c0-.19-.17-.19-.3-.18s-.18,0-.12.18h-.42s.1-.12.09-.14a.29.29,0,0,0-.15-.14c-2-.47-3.43-1.83-4.85-3.22-3.95-3.86-7.84-7.77-11.61-11.81a5.4,5.4,0,0,1-1.67-3.54c-.23-6.5-.11-13-.14-19.51,0-.75.23-1,1-.94q14.51,0,29,0c.69,0,.92.22.95.88.07,1.89.22,3.79.25,5.69,0,.74.24.93,1,.93q9.39,0,18.79,0c.77,0,1-.18,1-1,0-3.94-.05-7.88,0-11.82,0-.87-.28-1-1.07-1-5.31-.09-10.62-.1-15.93,0-2.38.06-3.47-1.1-3.52-3.48,0-.45,0-.91,0-1.37.27-8.4.18-16.81,0-25.21,0-1,.24-1.23,1.22-1.22,6.08,0,12.17,0,18.26,0,.68,0,1-.11,1-.9,0-4.19,0-8.37,0-12.56,0-.69-.19-.89-.88-.89-5.67,0-11.33,0-17,0A2.65,2.65,0,0,0,456,33.54a20.48,20.48,0,0,0-.08,4.63c0,.86-.14,1.13-1.06,1.13q-14.42-.06-28.82,0c-1,0-1.14-.31-1.13-1.19C425,31.75,425,25.38,425,19a5,5,0,0,1,1.52-3.76c4.25-4.35,8.48-8.72,12.85-13a8,8,0,0,1,3-1.87c.19-.06.59,0,.41-.41h.42c-.05.1,0,.18.08.17S443.35.08,443.39,0Z"/><path class="cls-1" d="M396.52,0c.07.12,0,.18-.11.18s-.29,0-.31-.18Z"/><path class="cls-1" d="M489.2,0c-.14.34-.28.26-.42,0Z"/><path class="cls-1" d="M350.49,0c0,.06-.08.16-.12.17s-.14-.07-.09-.17Z"/><path class="cls-1" d="M443.39,0c0,.06-.08.17-.13.17s-.13-.07-.08-.17Z"/></g></g></svg>