<?xml version="1.0" encoding="UTF-8" standalone="no" ?>
<!DOCTYPE svg PUBLIC "-//W3C//DTD SVG 1.1//EN" "http://www.w3.org/Graphics/SVG/1.1/DTD/svg11.dtd">
<svg xmlns="http://www.w3.org/2000/svg" xmlns:xlink="http://www.w3.org/1999/xlink" version="1.1" width="99.82" height="99.82" viewBox="222.00000000000003 200.09 99.82 99.82" xml:space="preserve">
<desc>Created with Fabric.js 4.6.0</desc>
<defs>
</defs>
<g transform="matrix(1 0 0 1 271.91 250)" id="3V4Hbwq8LatsnSTZpoHh6"  >
<g style="" vector-effect="non-scaling-stroke"   >
		<g transform="matrix(1.61 0 0 1.61 0 0)" id="RmBFDrg92yilGp5qNignT"  >
<path style="stroke: rgb(71,134,48); stroke-width: 0; stroke-dasharray: none; stroke-linecap: butt; stroke-dashoffset: 0; stroke-linejoin: miter; stroke-miterlimit: 4; fill: rgb(255,255,255); fill-rule: nonzero; opacity: 1;" vector-effect="non-scaling-stroke"  transform=" translate(0, 0)" d="M -31 -31 L 31 -31 L 31 31 L -31 31 z" stroke-linecap="round" />
</g>
		<g transform="matrix(1.06 0 0 1.06 0 0.2)" id="7nZg6uOQ_wzql1T2kj44D"  >
<path style="stroke: rgb(69,245,1); stroke-width: 0; stroke-dasharray: none; stroke-linecap: butt; stroke-dashoffset: 0; stroke-linejoin: miter; stroke-miterlimit: 4; fill: rgb(0,0,0); fill-rule: nonzero; opacity: 1;" vector-effect="non-scaling-stroke"  transform=" translate(-35.5, -35.5)" d="M 0 15.06137 C 0 6.7432 6.74321 0 15.06137 0 L 55.93863 0 L 55.93863 0 C 64.2568 0 71 6.74321 71 15.06137 L 71 55.93863 L 71 55.93863 C 71 64.2568 64.25679 71 55.93863 71 L 15.061370000000004 71 L 15.061370000000004 71 C 6.743200000000003 71 3.552713678800501e-15 64.25679 3.552713678800501e-15 55.93863 z" stroke-linecap="round" />
</g>
		<g transform="matrix(1.06 0 0 1.06 0 0.2)" id="-S8doHGXHhHvv8cGHOEgZ"  >
<path style="stroke: rgb(188,176,237); stroke-width: 0; stroke-dasharray: none; stroke-linecap: butt; stroke-dashoffset: 0; stroke-linejoin: miter; stroke-miterlimit: 4; fill: rgb(255,255,255); fill-rule: nonzero; opacity: 1;" vector-effect="non-scaling-stroke"  transform=" translate(-28, -28)" d="M 28 0 C 43.456 0 56 12.544 56 28 C 56 43.456 43.456 56 28 56 C 12.544 56 0 43.456 0 28 C 0 12.544 12.544 0 28 0 z" stroke-linecap="round" />
</g>
</g>
</g>
</svg>