<?xml version="1.0" encoding="UTF-8" standalone="no" ?>
<!DOCTYPE svg PUBLIC "-//W3C//DTD SVG 1.1//EN" "http://www.w3.org/Graphics/SVG/1.1/DTD/svg11.dtd">
<svg xmlns="http://www.w3.org/2000/svg" xmlns:xlink="http://www.w3.org/1999/xlink" version="1.1" width="123.78904633620688" height="123.78904633620688" viewBox="333.9522440732758 188.10547683189657 123.78904633620688 123.78904633620688" xml:space="preserve">
<desc>Created with Fabric.js 4.6.0</desc>
<defs>
</defs>
<g transform="matrix(1.13 0 0 1.13 395.85 250)" id="Q_I1ua1owIMvKwbt-Quwj"  >
<g style="" vector-effect="non-scaling-stroke"   >
		<g transform="matrix(0.48 0.48 -1.02 1.02 -0.31 0.31)" id="GZa-5lh5md8inD7DaC0RS"  >
<path style="stroke: rgb(226,228,190); stroke-width: 0; stroke-dasharray: none; stroke-linecap: butt; stroke-dashoffset: 0; stroke-linejoin: miter; stroke-miterlimit: 4; fill: rgb(0,0,0); fill-rule: nonzero; opacity: 1;" vector-effect="non-scaling-stroke"  transform=" translate(-39.84, -34.5)" d="M 59.75571 0 L 79.67433 34.5 L 59.75570999999999 69 L 19.918629999999993 69 L 0.000009999999992515995 34.5 L 19.918629999999993 0 z" stroke-linecap="round" />
</g>
		<g transform="matrix(-0.47 0.47 -1.03 -1.03 0.36 -0.36)" id="tGFXV9aAmnPTkgHEw5Ilb"  >
<path style="stroke: rgb(226,228,190); stroke-width: 0; stroke-dasharray: none; stroke-linecap: butt; stroke-dashoffset: 0; stroke-linejoin: miter; stroke-miterlimit: 4; fill: rgb(0,0,0); fill-rule: nonzero; opacity: 1;" vector-effect="non-scaling-stroke"  transform=" translate(-39.84, -34.5)" d="M 59.75571 0 L 79.67433 34.5 L 59.75570999999999 69 L 19.918629999999993 69 L 0.000009999999992515995 34.5 L 19.918629999999993 0 z" stroke-linecap="round" />
</g>
		<g transform="matrix(0 0.85 -0.85 0 -0.31 0.31)" id="6dGOKbsPDe95O1lqIJy6P"  >
<path style="stroke: rgb(230,210,70); stroke-width: 0; stroke-dasharray: none; stroke-linecap: butt; stroke-dashoffset: 0; stroke-linejoin: miter; stroke-miterlimit: 4; fill: rgb(255,255,255); fill-rule: nonzero; opacity: 1;" vector-effect="non-scaling-stroke"  transform=" translate(0, 0)" d="M -21.5 -21.5 L 21.5 -21.5 L 21.5 21.5 L -21.5 21.5 z" stroke-linecap="round" />
</g>
		<g transform="matrix(0.84 0 0 0.84 -0.31 0.31)" id="ID1DNqzAG57yGlxpVCDoB"  >
<path style="stroke: rgb(231,66,141); stroke-width: 0; stroke-dasharray: none; stroke-linecap: butt; stroke-dashoffset: 0; stroke-linejoin: miter; stroke-miterlimit: 4; fill: rgb(0,0,0); fill-rule: nonzero; opacity: 1;" vector-effect="non-scaling-stroke"  transform=" translate(0, 0)" d="M 0 -16.5 C 9.108 -16.5 16.5 -9.108 16.5 0 C 16.5 9.108 9.108 16.5 0 16.5 C -9.108 16.5 -16.5 9.108 -16.5 0 C -16.5 -9.108 -9.108 -16.5 0 -16.5 z" stroke-linecap="round" />
</g>
</g>
</g>
</svg>